/* XPM */
static char *result[] = {
/* columns rows colors chars-per-pixel */
"40 40 254 2 ",
"   c #780315",
".  c #8B0B0F",
"X  c #930A0F",
"o  c #990B0A",
"O  c #8D0712",
"+  c #8B0811",
"@  c #8D021A",
"#  c #8C011E",
"$  c #8E041C",
"%  c #9B0C13",
"&  c #970218",
"*  c #94061B",
"=  c #91081C",
"-  c #9A081A",
";  c #9E091C",
":  c #8F1113",
">  c #9E171A",
",  c #9F141C",
"<  c #901D1B",
"1  c #AF1D0D",
"2  c #AD0916",
"3  c #A80E17",
"4  c #A0061B",
"5  c #A60E19",
"6  c #B20D1C",
"7  c #B70D1D",
"8  c #AA1110",
"9  c #A81411",
"0  c #A91517",
"q  c #AD1F12",
"w  c #AF1914",
"e  c #AE1815",
"r  c #AD1D17",
"t  c #A6111E",
"y  c #A11A1D",
"u  c #A81B18",
"i  c #B51813",
"p  c #B01F15",
"a  c #B71418",
"s  c #B11E1B",
"d  c #BB1C1F",
"f  c #93221B",
"g  c #A62216",
"h  c #A72615",
"j  c #AE2413",
"k  c #AA2115",
"l  c #AD2215",
"z  c #AE2914",
"x  c #A92D17",
"c  c #A52018",
"v  c #AE2619",
"b  c #B52016",
"n  c #B12615",
"m  c #B32A12",
"M  c #BE2D16",
"N  c #BD251B",
"B  c #B02B1E",
"V  c #B52C1D",
"C  c #BB281B",
"Z  c #AF301D",
"A  c #AF341C",
"S  c #BA351C",
"D  c #B13E18",
"F  c #BF3919",
"G  c #BE3A1F",
"H  c #8E0121",
"J  c #8E0026",
"K  c #980624",
"L  c #A50421",
"P  c #AA0620",
"I  c #B50A21",
"U  c #A11421",
"Y  c #AF1322",
"T  c #AD1523",
"R  c #BA1A24",
"E  c #BD1924",
"W  c #9E2620",
"Q  c #A02F23",
"!  c #A92F24",
"~  c #B42F22",
"^  c #BB2822",
"/  c #BC2B20",
"(  c #BE2B20",
")  c #BD2B24",
"_  c #AD3A23",
"`  c #BD3521",
"'  c #C0211C",
"]  c #C6231F",
"[  c #C3241F",
"{  c #CE241A",
"}  c #CA261C",
"|  c #C12C18",
" . c #C32F1D",
".. c #C33216",
"X. c #C03415",
"o. c #C6331E",
"O. c #C3351D",
"+. c #C8311E",
"@. c #CF331F",
"#. c #CE3918",
"$. c #D23219",
"%. c #D1301B",
"&. c #D0371D",
"*. c #DA371D",
"=. c #DE341F",
"-. c #D13919",
";. c #D6391B",
":. c #D8391E",
">. c #C41724",
",. c #CC2127",
"<. c #CC2625",
"1. c #C32921",
"2. c #C02C2A",
"3. c #CB3120",
"4. c #CD3C20",
"5. c #C03428",
"6. c #D83922",
"7. c #D83C28",
"8. c #C52336",
"9. c #E03720",
"0. c #E33E22",
"q. c #E93F20",
"w. c #B75D10",
"e. c #BA511A",
"r. c #BF7118",
"t. c #BF761A",
"y. c #BA4B23",
"u. c #A45F26",
"i. c #AA6B3A",
"p. c #CF4316",
"a. c #CD451F",
"s. c #DB421B",
"d. c #DD411F",
"f. c #DC491D",
"g. c #C8561B",
"h. c #E2401F",
"j. c #F04F1C",
"k. c #E6531F",
"l. c #EF531D",
"z. c #EC511F",
"x. c #CE6C1B",
"c. c #CA741B",
"v. c #DE791F",
"b. c #C74028",
"n. c #CB442E",
"m. c #D44723",
"M. c #DD4325",
"N. c #DF4B20",
"B. c #DB4E23",
"V. c #DF4C25",
"C. c #CF5621",
"Z. c #C95C26",
"A. c #CB5028",
"S. c #D35420",
"D. c #D35525",
"F. c #D45724",
"G. c #D75C21",
"H. c #DC5C22",
"J. c #DC5E22",
"K. c #D34B30",
"L. c #E24323",
"P. c #EA4223",
"I. c #F24724",
"U. c #EC5326",
"Y. c #E85D24",
"T. c #F25E24",
"R. c #C1652C",
"E. c #DF6325",
"W. c #C76A35",
"Q. c #CC6E32",
"!. c #CF6E3A",
"~. c #D16B38",
"^. c #CE763A",
"/. c #DF703E",
"(. c #DF743C",
"). c #E76C22",
"_. c #E5682A",
"`. c #E66C2B",
"'. c #EF6D29",
"]. c #F36325",
"[. c #F46826",
"{. c #F46B29",
"}. c #E57325",
"|. c #E77B2B",
" X c #F37322",
".X c #F4752A",
"XX c #F07D34",
"oX c #CB861B",
"OX c #DF9E1F",
"+X c #CA8726",
"@X c #C88822",
"#X c #D59925",
"$X c #EE852E",
"%X c #EF8E29",
"&X c #EF892C",
"*X c #F18126",
"=X c #F28028",
"-X c #F38528",
";X c #F29B26",
":X c #F6902D",
">X c #EB8932",
",X c #F38D33",
"<X c #EE9C32",
"1X c #EC933C",
"2X c #F89937",
"3X c #F19238",
"4X c #E5AF2C",
"5X c #F5A328",
"6X c #F5A32C",
"7X c #F7A32E",
"8X c #F8A92D",
"9X c #F9AA2D",
"0X c #F8B329",
"qX c #F7B82D",
"wX c #F8BC2C",
"eX c #F2A23A",
"rX c #F2A13D",
"tX c #F5AF3D",
"yX c #F4B732",
"uX c #F5C332",
"iX c #F7C73D",
"pX c #FAC83D",
"aX c #DD994F",
"sX c #CB9C59",
"dX c #D49D5F",
"fX c #EA8B4A",
"gX c #E69046",
"hX c #E0904D",
"jX c #EC9349",
"kX c #F29942",
"lX c #F39C4C",
"zX c #EF9555",
"xX c #D9A155",
"cX c #EDA148",
"vX c #E5A055",
"bX c #E8A751",
"nX c #F2AA56",
"mX c #F0BD5A",
"MX c #D2A160",
"NX c #DABC6F",
"BX c #E1BB6D",
"VX c #E5B96F",
"CX c #F2B469",
"ZX c #E7BD72",
"AX c #F7D141",
"SX c #FCD243",
"DX c #F4C26B",
"FX c #E6C276",
"GX c #F2C070",
"HX c #F0D271",
"JX c #F3DB72",
"KX c #D1CA99",
"LX c #ECDF93",
"PX c None",
/* pixels */
"PXPXPXPXPXPXPXPXPXPXPXPXPXPXPXPXPXPXPXPXPXPXPXPXPXPXPXPXPXPXPXPXPXPXPXPXPXPXPXPX",
"PXPXPXPXPXPXPXPXPXPXPXPXPXPXPXPXPXPXPXPXPXPXPXPXPXPXPXPXPXPXPXPXPXPXPXPXPXPXPXPX",
"PXPXPXPXPXPXPXPXPXPXPXPXPXPXPXPXPXPXPXPXPXPXPXPXPXPXPXPXPXPXPXPXPXPXPXPXPXPXPXPX",
"PXPXPXPXPXPXPXPXPXPXPXPXPXPXPXPXPXPXPXPXPXPXPXPXPXPXPXPXPXPXPXPXPXPXPXPXPXPXPXPX",
"PXPXPXPXPXPXPXPXPXPXPXPXPXPXPXPXPXPXPXPXPXPXPXPXPXPXPXPXPXPXPXPXPXPXPXPXPXPXPXPX",
"PXPXPXPXPXPXPXPXPXPXPXPXPXPXPXPXPXPXPXPXPXPXPXPXPXPXPXPXPXPXPXPXPXPXPXPXPXPXPXPX",
"PXPXPXPXPXPXPXPXPXPXPXPXPXPXPXPXPXPXPXPXPXPXPXPXPXPXPXPXPXPXPXPXPXPXPXPXPXPXPXPX",
"PXPXPXPXPXPXPXPXPXPXPXPXPXPXPXPXPXPXKXLXNXPXPXPXPXPXPXPXPXPXPXPXPXPXPXPXPXPXPXPX",
"PXPXPXPXPXPXPXPXPXPXPXPXPXPXPXPXPXPXPXJXmXxXPXPXPXPXPXPXPXPXPXPXPXPXPXPXPXPXPXPX",
"PXPXPXPXPXPXPXPXPXPXPXPXPXPXPXPXPXPXPXHXeX>X^.PXPXPXPXPXPXPXPXPXPXPXPXPXPXPXPXPX",
"PXPXPXPXPXPXPXPXPXPXPXPXPXPXPXPXPXPXPXDX,X X_.y.PXPXPXPXPXPXPXPXPXPXPXPXPXPXPXPX",
"PXPXPXPXPXPXPXPXPXPXPXPXPXPXPXPXPXPXGXkX.X[.].F.PXPXPXPXPXPXPXPXPXPXPXPXPXPXPXPX",
"PXPXPXPXPXPXPXPXPXPXPXPXPXPXPXPXPXCX1X).f.U.T.C.u.dXi.PXPXPXPXPXPXPXPXPXPXPXPXPX",
"PXPXPXPXPXPXPXPXPXPXPXPXPXPXPXZXnXXXY.X.X C V.D MXaXPXPXPXPXPXPXPXPXPXPXPXPXPXPX",
"PXPXPXPXPXPXPXPXPXPXPXPXPXPXBXlX'.N.N +   . B PXsXhXPXPXPXPXPXPXPXPXPXPXPXPXPXPX",
"PXPXPXPXPXPXPXPXPXPXPXPXPXPXvX{.;.e , ! Q : c A R.(.PXPXPXPXPXPXPXPXPXPXPXPXPXPX",
"PXPXPXPXPXPXPXPXPXPXPXPXPXPXQ.B.i u ~.rX<XZ.k 5.b.4.z PXPXPXPXPXPXPXPXPXPXPXPXPX",
"PXPXPXPXPXPXPXPXPXPXPXPXVXPXPX` E n.tXwX0X3XZ * @ 9 M PXPXPXPXPXPXPXPXPXPXPXPXPX",
"PXPXPXPXPXPXPXPXPXPXPXPXbXe.PX| ,./.iXuXqX7Xg.~ O r :.PXPXPXPXPXPXPXPXPXPXPXPXPX",
"PXPXPXPXPXPXPXPXPXPXPXFXcXH.#.%.<.fXAX4XOX9X&XD.o +.P.l PXPXPXPXPXPXPXPXPXPXPXPX",
"PXPXPXPXPXPXPXPXPXPXPXPXgXk.{ >.8.zXSX#XoX8X:XF 8 L.q.p PXPXPXPXPXPXPXPXPXPXPXPX",
"PXPXPXPXPXPXPXPXPXPXPXPXW.m.2 P 2.jXpX@Xt.5X}.w } I.$.PXPXPXPXPXPXPXPXPXPXPXPXPX",
"PXPXPXPXPXPXPXPXPXPXPXPXPX_ y ; K.2XyX+Xr.;XS.6 =.0.q PXPXPXPXPXPXPXPXPXPXPXPXPX",
"PXPXPXPXPXPXPXPXPXPXPXPXPXPXf t ^ |.6Xc.w.%Xa.I 9...PXPXPXPXPXPXPXPXPXPXPXPXPXPX",
"PXPXPXPXPXPXPXPXPXPXPXPXPXPXPX1.Y G -Xv.x.$XO.7 *.1 PXPXPXPXPXPXPXPXPXPXPXPXPXPX",
"PXPXPXPXPXPXPXPXPXPXPXPXPX!.p.d.R T E.*X=X`.s a h.( < PXPXPXPXPXPXPXPXPXPXPXPXPX",
"PXPXPXPXPXPXPXPXPXPXPXPXPXA.l.z.] L V G.J.S - d 7.g PXPXPXPXPXPXPXPXPXPXPXPXPXPX",
"PXPXPXPXPXPXPXPXPXPXPXPXPXx s.j.6.4 K U > = & [ v PXPXPXPXPXPXPXPXPXPXPXPXPXPXPX",
"PXPXPXPXPXPXPXPXPXPXPXPXPXPXn &.M.b $ J H # 3 ) PXPXPXPXPXPXPXPXPXPXPXPXPXPXPXPX",
"PXPXPXPXPXPXPXPXPXPXPXPXPXPXPXPXm -.' 5 % 0 / W PXPXPXPXPXPXPXPXPXPXPXPXPXPXPXPX",
"PXPXPXPXPXPXPXPXPXPXPXPXPXPXPXPXPXj 3.@.o. .h PXPXPXPXPXPXPXPXPXPXPXPXPXPXPXPXPX",
"PXPXPXPXPXPXPXPXPXPXPXPXPXPXPXPXPXPXPXPXPXPXPXPXPXPXPXPXPXPXPXPXPXPXPXPXPXPXPXPX",
"PXPXPXPXPXPXPXPXPXPXPXPXPXPXPXPXPXPXPXPXPXPXPXPXPXPXPXPXPXPXPXPXPXPXPXPXPXPXPXPX",
"PXPXPXPXPXPXPXPXPXPXPXPXPXPXPXPXPXPXPXPXPXPXPXPXPXPXPXPXPXPXPXPXPXPXPXPXPXPXPXPX",
"PXPXPXPXPXPXPXPXPXPXPXPXPXPXPXPXPXPXPXPXPXPXPXPXPXPXPXPXPXPXPXPXPXPXPXPXPXPXPXPX",
"PXPXPXPXPXPXPXPXPXPXPXPXPXPXPXPXPXPXPXPXPXPXPXPXPXPXPXPXPXPXPXPXPXPXPXPXPXPXPXPX",
"PXPXPXPXPXPXPXPXPXPXPXPXPXPXPXPXPXPXPXPXPXPXPXPXPXPXPXPXPXPXPXPXPXPXPXPXPXPXPXPX",
"PXPXPXPXPXPXPXPXPXPXPXPXPXPXPXPXPXPXPXPXPXPXPXPXPXPXPXPXPXPXPXPXPXPXPXPXPXPXPXPX",
"PXPXPXPXPXPXPXPXPXPXPXPXPXPXPXPXPXPXPXPXPXPXPXPXPXPXPXPXPXPXPXPXPXPXPXPXPXPXPXPX",
"PXPXPXPXPXPXPXPXPXPXPXPXPXPXPXPXPXPXPXPXPXPXPXPXPXPXPXPXPXPXPXPXPXPXPXPXPXPXPXPX"
};
