/* XPM */
static char *result[] = {
/* columns rows colors chars-per-pixel */
"40 40 199 2 ",
"   c #2C1D2C",
".  c #331F33",
"X  c #2F242E",
"o  c #3A2427",
"O  c #2F2138",
"+  c #342533",
"@  c #3E2A34",
"#  c #3D2D3E",
"$  c #36273A",
"%  c #3F313C",
"&  c #4F1929",
"*  c #5E1A2E",
"=  c #4D242E",
"-  c #40232A",
";  c #452C3A",
":  c #472A35",
">  c #512E3F",
",  c #41323D",
"<  c #58363B",
"1  c #392B40",
"2  c #3C3140",
"3  c #472C40",
"4  c #433342",
"5  c #4C3544",
"6  c #4C3B45",
"7  c #45374B",
"8  c #4D3C4B",
"9  c #533642",
"0  c #533B45",
"q  c #533B4A",
"w  c #4F3B55",
"e  c #693F4C",
"r  c #713145",
"t  c #4F454D",
"y  c #52424D",
"u  c #51494E",
"i  c #59434C",
"p  c #4D4355",
"a  c #544354",
"s  c #5B4654",
"d  c #5C4B53",
"f  c #534A5A",
"g  c #5A4D5B",
"h  c #6B4C53",
"j  c #654A56",
"k  c #64515C",
"l  c #74555B",
"z  c #664C66",
"x  c #625362",
"c  c #63556D",
"v  c #675A69",
"b  c #725B65",
"n  c #7E5C6E",
"m  c #705662",
"M  c #68567A",
"N  c #6E616B",
"B  c #6C6067",
"V  c #7F676D",
"C  c #76666D",
"Z  c #6F6471",
"A  c #7C6774",
"S  c #746B74",
"D  c #786D78",
"F  c #7A767E",
"G  c #834E5F",
"H  c #884559",
"J  c #875B62",
"K  c #955D65",
"L  c #8A636D",
"P  c #9B606F",
"I  c #846571",
"U  c #8E6D7B",
"Y  c #866B75",
"T  c #81737E",
"R  c #877377",
"E  c #99707B",
"W  c #A96C7E",
"Q  c #7F7685",
"!  c #996A8B",
"~  c #8A7D88",
"^  c #987B87",
"/  c #8F7295",
"(  c #967B91",
")  c #A27B82",
"_  c #877AA2",
"`  c #9A7FA3",
"'  c #8D838E",
"]  c #92838F",
"[  c #928386",
"{  c #858292",
"}  c #9E8293",
"|  c #9C829C",
" . c #978396",
".. c #A5838F",
"X. c #AB8C9A",
"o. c #A98895",
"O. c #A7979D",
"+. c #B79F9B",
"@. c #B6949C",
"#. c #9E87A8",
"$. c #9F94A0",
"%. c #A58BA9",
"&. c #A499A3",
"*. c #A99AA7",
"=. c #B697A6",
"-. c #B29AA4",
";. c #B29BAC",
":. c #A48DB2",
">. c #A68FB7",
",. c #A791B1",
"<. c #A896B2",
"1. c #B294B6",
"2. c #B899B9",
"3. c #ACA3AD",
"4. c #BCA5AD",
"5. c #AEA8B2",
"6. c #B9A4B2",
"7. c #B3ABB4",
"8. c #B7A8B7",
"9. c #BAB2BC",
"0. c #BCB0B7",
"q. c #C595A4",
"w. c #C3A4AD",
"e. c #CAA3B5",
"r. c #C1ABB1",
"t. c #CFAEB9",
"y. c #C3A8B8",
"u. c #D5A9BC",
"i. c #C2B1B3",
"p. c #CAB2B3",
"a. c #CEB2BB",
"s. c #C3B1B8",
"d. c #D7B6BD",
"f. c #B08EC4",
"g. c #A89BC8",
"h. c #BCACC4",
"j. c #BFB6C1",
"k. c #BDB5CA",
"l. c #B1A0D8",
"z. c #CAB5C2",
"x. c #C2BBC3",
"c. c #CBBBC3",
"v. c #C7B8CE",
"b. c #C2B2C2",
"n. c #D3BEC3",
"m. c #D3B5C1",
"M. c #DBBCD2",
"N. c #CAC4CC",
"B. c #CAC3C9",
"V. c #D4C1C6",
"C. c #D8C5C7",
"Z. c #D9CECD",
"A. c #D3C6CD",
"S. c #CEC4D1",
"D. c #CBC8D9",
"F. c #D4CBD3",
"G. c #DACCD4",
"H. c #D3C9D9",
"J. c #DACEDE",
"K. c #DCD1D7",
"L. c #D6D1DB",
"P. c #DAD4DC",
"I. c #DFDBDE",
"U. c #E3C3CC",
"Y. c #E3CAD3",
"T. c #E6D5D6",
"R. c #E9D3D6",
"E. c #E7D7DB",
"W. c #EAD2D9",
"Q. c #E3D9DB",
"!. c #E9D9DA",
"~. c #F1DBDE",
"^. c #DCDBE3",
"/. c #DFD2E3",
"(. c #E5DCE3",
"). c #E6DAE5",
"_. c #F4DDE2",
"`. c #E3E1E5",
"'. c #EEE5E5",
"]. c #E5E1EA",
"[. c #EBE4EB",
"{. c #EDE9EE",
"}. c #F4E2E4",
"|. c #F6EAEC",
" X c #FBEBED",
".X c #FBF0EF",
"XX c #EDEAF1",
"oX c #F3EDF3",
"OX c #FAEDF2",
"+X c #F2E7F0",
"@X c #EFF0F4",
"#X c #F4F1F5",
"$X c #FCF3F3",
"%X c #FDF9F7",
"&X c #F6F2F9",
"*X c #FBF6FB",
"=X c #FCFBFD",
"-X c #F7FBFD",
";X c None",
/* pixels */
";X;X;X;X;X;X;X;X;X;X;X;X;X;X;X;X;X;X;X;X;X;X;X;X;X;X;X;X;X;X;X;X;X;X;X;X;X;X;X;X",
";X;X;X;X;X;X;X;X;X;X;X;X;X;X;XV.P.P.N.7.b.S.P.A.;X;X;X;X;X;X;X;X;X;X;X;X;X;X;X;X",
";X;X;X;X;X;X;X;X;X;X;X;Xi.I.oX=X*X*X-X-X&X@X&X=X'.i.;X;X;X;X;X;X;X;X;X;X;X;X;X;X",
";X;X;X;X;X;X;X;X;X;X;Xr.#X=X%X-X=X=X=X=X=X=X=X=X=X{.;X;X;X;X;X;X;X;X;X;X;X;X;X;X",
";X;X;X;X;X;X;X;X;X;X;X(.=X=X-X#XXX[.(.P.^.].XX&X-X=XL.;X;X;X;X;X;X;X;X;X;X;X;X;X",
";X;X;X;X;X;X;X;X;X;XV.#XL.7.' S v x g f f k v S ] 5.F.6.;X;X;X;X;X;X;X;X;X;X;X;X",
";X;X;X;X;X;X;X;X;X;X&.~ u 4 , ; , , % 4 ; , % % , 4 a x ;X;X;X;X;X;X;X;X;X;X;X;X",
";X;X;X;X;X;X;X;X;X3 7 , , , , % , , 4 4 4 4 4 % % % % 4 ; ;X;X;X;X;X;X;X;X;X;X;X",
";X;X;X;X;X;X;X;X;X3 4 % 3 y x D ' &.3.9.9.8.*.&.' D x t % ;X;X;X;X;X;X;X;X;X;X;X",
";X;X;X;X;X;X;X;X;X5 g F 6.F.].&X-X=X=X=X=X=X=X=X=X&X{.K.7.' ;X;X;X;X;X;X;X;X;X;X",
";X;X;X;X;X;X;X;X~ 0.(.&X=X=X-X*X=X=X=X=X=X=X*X=X=X=X=X=X=X&XF.;X;X;X;X;X;X;X;X;X",
";X;X;X;X;X;X;XG.#X=X=X=X-X-X*X&XoX[.)./.P.H.S.9.9.b.x.N.J.[.oXG.;X;X;X;X;X;X;X;X",
";X;X;X;X;X;X(.=X-X&X].L.H.v.h.8.<.>.:.:.,.,.( w $ 1 1 2 4 f <.D.k.;X;X;X;X;X;X;X",
";X;X;X;X;XP.^.k.{ c w c %.` %.,.1.1.1.1.,.| %.( a $ $ + X O M l.>.! ;X;X;X;X;X;X",
";X;X;X;X%.g.l._ $   + z 2.;. .( 8.M.M.e.} 6.z.z.*.A 2 ; + 2 c / ;X;X;X;X;X;X;X;X",
";X;X;X;X;X;Xf.:.7 X 4 Z ] } -.O.=._.W.a.s. .b 0 t u 8 4 5 q ;X;X;X;X;X;X;X;X;X;X",
";X;X;X;X;X;X;X;X8 5 D F Z = = h 4.|.}.}.O.0 & r ..C y x s e ;X;X;X;X;X;X;X;X;X;X",
";X;X;X;X;X;X;X;X;XU b 3.6.H * J 4.$X%X Xz.o.G W t.6.k Y k ;X;X;X;X;X;X;X;X;X;X;X",
";X;X;X;X;X;X;X;X;XR y 0.n.@.E w.|.-X%X$X XY.p.a.C.n.V I ;X;X;X;X;X;X;X;X;X;X;X;X",
";X;X;X;X;X;X;X;X;Xl d s. X!.Z.T.$X%X%X$X$X X}.}.R.^ < ;X;X;X;X;X;X;X;X;X;X;X;X;X",
";X;X;X;X;X;X;X;X;X;Xh R T.$X$X.X$X'.T.Z.'. X X_.U.L = ;X;X;X;X;X;X;X;X;X;X;X;X;X",
";X;X;X;X;X;X;X;X;X;X;X< +.}. X$X X!.~._.}.}.Y.m.o.h ;X;X;X;X;X;X;X;X;X;X;X;X;X;X",
";X;X;X;X;X;X;X;X;X;X;X;X;X;Xp.C.W.E.R.U.t.o.^ =.X.X.;X;X;X;X;X;X;X;X;X;X;X;X;X;X",
";X;X;X;X;X;X;X;X;X;X;X;X;X;X;X0 V Y I m i m ^ e.e.q.;X;X;X;X;X;X;X;X;X;X;X;X;X;X",
";X;X;X;X;X;X;X;X;X;X;X;X;X;X;X;X;X, N k y A X.e.u.q.;X;X;X;X;X;X;X;X;X;X;X;X;X;X",
";X;X;X;X;X;X;X;X;X;X;X;X;X;X;X;Xo 6 ~ V j 0 ; j L ;X;X;X;X;X;X;X;X;X;X;X;X;X;X;X",
";X;X;X;X;X;X;X;X;X;X;X;X;X;X;X;X@ 6 [ V u q @ ;X;X;X;X;X;X;X;X;X;X;X;X;X;X;X;X;X",
";X;X;X;X;X;X;X;X;X;X;X;X;X;Xh < 6 , d s s 0 - ;X;X;X;X;X;X;X;X;X;X;X;X;X;X;X;X;X",
";X;X;X;X;X;X;X;X;X;X;X;X;Xd.s.d + , 0 s q ; ;X;X;X;X;X;X;X;X;X;X;X;X;X;X;X;X;X;X",
";X;X;X;X;X;X;X;X;X;X;X;X;X;X..;X;X% 9 0 6 , ;X;X;X;X;X;X;X;X;X;X;X;X;X;X;X;X;X;X",
";X;X;X;X;X;X;X;X;X;X;X;X;X;X;X;X;X$.D B T &.@.;X;X;X;X;X;X;X;X;X;X;X;X;X;X;X;X;X",
";X;X;X;X;X;X;X;X;X;X;X;X;X;X;X;X;XXX^.F.{.=XP.;X;X;X;X;X;X;X;X;X;X;X;X;X;X;X;X;X",
";X;X;X;X;X;X;X;X;X;X;X;X;X;X;X;X;XXXXXN.].-XL.;X;X;X;X;X;X;X;X;X;X;X;X;X;X;X;X;X",
";X;X;X;X;X;X;X;X;X;X;X;X;X;X;X;X;XQ.#Xj.P.#XP.;X;X;X;X;X;X;X;X;X;X;X;X;X;X;X;X;X",
";X;X;X;X;X;X;X;X;X;X;X;X;X;X;X;X;XP.oX;.y.).oXy.;X;X;X;X;X;X;X;X;X;X;X;X;X;X;X;X",
";X;X;X;X;X;X;X;X;X;X;X;X;X;X;X;X;XP.J.;X;X0.`.P.;X;X;X;X;X;X;X;X;X;X;X;X;X;X;X;X",
";X;X;X;X;X;X;X;X;X;X;X;X;X;X;X;XT 9.;.;X;X;Xc.N.;X;X;X;X;X;X;X;X;X;X;X;X;X;X;X;X",
";X;X;X;X;X;X;X;X;X;X;X;X;X;X;X;Xn I h ;X;X;Xn E E ;X;X;X;X;X;X;X;X;X;X;X;X;X;X;X",
";X;X;X;X;X;X;X;X;X;X;X;X;X;X;X;XP ;X;X;X;X;Xe J K ;X;X;X;X;X;X;X;X;X;X;X;X;X;X;X",
";X;X;X;X;X;X;X;X;X;X;X;X;X;X;X;X;X;X;X;X;X;X;X;X;X;X;X;X;X;X;X;X;X;X;X;X;X;X;X;X"
};
