/* XPM */
static char *result[] = {
/* columns rows colors chars-per-pixel */
"40 40 247 2 ",
"   c #1C0504",
".  c #09161C",
"X  c #191617",
"o  c #1E0912",
"O  c #2B0B0C",
"+  c #23060A",
"@  c #320909",
"#  c #2A0B12",
"$  c #270C14",
"%  c #350E15",
"&  c #29131A",
"*  c #3B151B",
"=  c #361419",
"-  c #30221F",
";  c #0C1B2B",
":  c #091926",
">  c #151A24",
",  c #0B1D32",
"<  c #071C31",
"1  c #111D36",
"2  c #271B27",
"3  c #381C26",
"4  c #2A0F20",
"5  c #16222A",
"6  c #0C243C",
"7  c #0D2638",
"8  c #14243D",
"9  c #1A2836",
"0  c #132C33",
"q  c #26272D",
"w  c #372329",
"e  c #282736",
"r  c #382B37",
"t  c #2A373E",
"y  c #34333C",
"u  c #363538",
"i  c #45181B",
"p  c #4E1219",
"a  c #701618",
"s  c #57201F",
"d  c #461A24",
"f  c #551D26",
"g  c #651F2A",
"h  c #48242A",
"j  c #59262A",
"k  c #472A35",
"l  c #582B37",
"z  c #44383C",
"x  c #58353B",
"c  c #5C342E",
"v  c #6A252D",
"b  c #692B35",
"n  c #742C37",
"m  c #67373A",
"M  c #743232",
"N  c #3F483F",
"B  c #4F483F",
"V  c #79413F",
"C  c #0E2B47",
"Z  c #192B42",
"A  c #132D4A",
"S  c #132942",
"D  c #19314A",
"F  c #143353",
"G  c #1B3B5C",
"H  c #163659",
"J  c #293646",
"K  c #3A3844",
"L  c #293B55",
"P  c #2F314D",
"I  c #1B3B63",
"U  c #223C67",
"Y  c #463B47",
"T  c #52394A",
"R  c #51354F",
"E  c #6B3846",
"W  c #753A47",
"Q  c #7F3F51",
"!  c #374653",
"~  c #334B4C",
"^  c #1A446B",
"/  c #26476A",
"(  c #3A4965",
")  c #274D75",
"_  c #2C557B",
"`  c #315066",
"'  c #3C636A",
"]  c #484649",
"[  c #554948",
"{  c #495646",
"}  c #56584C",
"|  c #4A4654",
" . c #544A59",
".. c #4B5358",
"X. c #575559",
"o. c #69464C",
"O. c #794846",
"+. c #7A4351",
"@. c #67565A",
"#. c #674E58",
"$. c #526959",
"%. c #74645A",
"&. c #5B5865",
"*. c #495B72",
"=. c #665865",
"-. c #5B6764",
";. c #597867",
":. c #526C71",
">. c #6B6369",
",. c #756668",
"<. c #6D6872",
"1. c #7A6973",
"2. c #777678",
"3. c #6C766C",
"4. c #90291C",
"5. c #992727",
"6. c #8C3231",
"7. c #B52A2C",
"8. c #AF302D",
"9. c #93211B",
"0. c #D82827",
"q. c #DA3629",
"w. c #CA3636",
"e. c #C6322D",
"r. c #E53B29",
"t. c #E92F2E",
"y. c #D7301F",
"u. c #B24E3C",
"i. c #AA663B",
"p. c #84443D",
"a. c #D8462C",
"s. c #CA4834",
"d. c #D84538",
"f. c #D85137",
"g. c #C84C34",
"h. c #E6472A",
"j. c #E85838",
"k. c #E7492D",
"l. c #E8623A",
"z. c #EE753A",
"x. c #833A45",
"c. c #933C47",
"v. c #B73B45",
"b. c #C33C41",
"n. c #844654",
"m. c #875856",
"M. c #954B4F",
"N. c #B74B48",
"B. c #B14E4D",
"V. c #8A645C",
"C. c #9B6D59",
"Z. c #AC6959",
"A. c #875266",
"S. c #975364",
"D. c #886768",
"F. c #976861",
"G. c #957A7A",
"H. c #8B7275",
"J. c #B37870",
"K. c #AA5B6D",
"L. c #CC5945",
"P. c #DA5547",
"I. c #CD514A",
"U. c #D86453",
"Y. c #D1684B",
"T. c #E86C47",
"R. c #E87744",
"E. c #F17D45",
"W. c #EF754E",
"Q. c #D37A65",
"!. c #E15F46",
"~. c #779378",
"^. c #92837C",
"/. c #B78179",
"(. c #AC896D",
"). c #EF8E57",
"_. c #D18A7B",
"`. c #D68B70",
"'. c #EB976C",
"]. c #F8A96C",
"[. c #F8BB76",
"{. c #F6AF72",
"}. c #EFA554",
"|. c #F9C57B",
" X c #2A5785",
".X c #3F6995",
"XX c #597788",
"oX c #52728D",
"OX c #6A7787",
"+X c #4D78A6",
"@X c #867882",
"#X c #907D81",
"$X c #AB7587",
"%X c #6D8988",
"&X c #76A88A",
"*X c #6C9593",
"=X c #9A8685",
"-X c #8A8A8D",
";X c #A48A87",
":X c #B99987",
">X c #A99595",
",X c #B79A96",
"<X c #B5918C",
"1X c #82AB93",
"2X c #BAA39D",
"3X c #A9A290",
"4X c #B9ADAC",
"5X c #C79688",
"6X c #C9968E",
"7X c #C5A497",
"8X c #D2A78E",
"9X c #EBB39E",
"0X c #EEB191",
"qX c #C7ABA5",
"wX c #C8B4A9",
"eX c #DABCB3",
"rX c #DCB1A5",
"tX c #EBB8A3",
"yX c #F3BAA7",
"uX c #EBBAB2",
"iX c #E39D98",
"pX c #91C8A5",
"aX c #F7C489",
"sX c #FBD897",
"dX c #F7D286",
"fX c #D3C2AE",
"gX c #E8C6AC",
"hX c #F3C6AB",
"jX c #E7CBB7",
"kX c #F6CAB6",
"lX c #F7D4BB",
"zX c #FCD9A3",
"xX c #F8ECB5",
"cX c #F8E7AC",
"vX c #EBD194",
"bX c #C1BDC5",
"nX c #B3CCD8",
"mX c #B8D0DC",
"MX c #CECFD4",
"NX c #EFD4C6",
"BX c #FAF8D9",
"VX c #FDF3C6",
"CX c #D6F0F8",
"ZX c #FBFCE8",
"AX c #E7F6FA",
"SX c #F0F1F1",
"DX c None",
/* pixels */
"DXDXDXDXDXDXDXDXDXDXDXDXDXDXDXDXDXDXDXDXDXDXDXDXDXDXDXDXDXDXDXDXDXDXDXDXDXDXDXDX",
"DXDXDXDX9 e 9 t J P J D Z e Z Z e 0 J Z e e 0 9 e 9 q J DXDXDXDXDXDXDXDXDXDXDXDX",
"DXDX; 1 ; : 6 C ` XXoX( H D Z F S K e e r k 8 1 : < < 9 DXDXDXDXDXDXDXDXDXDXDXDX",
"DXDX, 1 8 8 A oXMXAXAXmXoX! R Y R W n.W n E r 9 , S D P DXDXDXDXDXDXDXDXDXDXDXDX",
"DXDXF 6 6 A ` nXAXAXAXAXmX*.S.S.x.j f g j v b l r D F Z DXDXDXDXDXDXDXB.DXDXDXDX",
"DXDX_ ^ F A oXCXAXAXSXCXMXD.S.b % # * O % d i s l L Z 1 DXDXDXDXDXDXDXI.I.DXDXDX",
"DX*. X+X_ F oXCXAXAXSX,X$XK.b 4 d d %     % # j f l P 1 DXDXDXDXDXDXDXDXDXDXDXDX",
"DX( ^ .X) H _ nXSXSXSX<XK.Q f j i * * O     & * @ 3 e S J DXDXDXDXv.w.w.DXDXDXDX",
"DX! F I _ ) / oXnXAXMX$Xn.l E i * O         + + % d k Z S e DXDXDXDXw.0.w.DXDXDX",
"DX! S A G / / ^  XoXOX,.b W f * +   % m m.C.C.n.% i d J S 1 L DXDXw.0.0.I.DXDXDX",
"DXJ < S A F H I I ( A.Q E n j @ + c J.0X9X9X9X5Xp.j h J C S DXDXDXB.0.0.0.DXDXDX",
"DXt < , C F C F I L R l b 6.b i c 5X9XyX9XtXyX_.B.6.j P S Z / DXDX3 7.r.q.w.DXDX",
"DXJ : < C A H F H I P R v c.b i Q.yX9XtXyXhXyX_._./.v R P A L DXJ 4 7.h.z.k.b.DX",
"DXu : : < C C H H I R R v n i m rX8XtXhXyXyXhXtX8X8Xm K H F 6 Z 9 > a a.].`.I.DX",
"DXy . : < < D G I U U 4 f g @ C.gX5XD.5XhXhXkX:XF.<Xk P ^ C ; ; 9 > j `.8XZ.N.DX",
"DXK > : 0 : 7 D H U ) P E n @ S.rX%.= j 5XhXtXm m.D.r D S 5 . 9 X.3.V.C.(.g.I.DX",
"DXJ X . u 5 : : C )  X/ ..J.m.V.fX,Xn.D.tXlXgX/.7X,.Z 8 7 K &.-X#X<.x.T.0Xf.DXDX",
"DXt . X w > . : C H ^ H L %.G.:XkXkXiXuXlXlXkXlXqX>.%X..-.<.2.| e > 5.j.W.L.DXDX",
"DXy X g = . : : < 7 7 C oX*X;.>.2XlXNXlXlXlXxXlX>X<.:.! t 5 : 2 > X a t.a.d.K.DX",
"DXu p 5.$ . . : : ; 6 t :.%X3.3.[ <XjXlXjX4X3X~.K 9 0 1 0 0 q q : $ 9.j.j.w.DXDX",
"DXm 5.7.3 X : : : 0 t $.^.qX:X{ & z %.@.} } $.~.B t K ~ ~.*X*XN a 9.f.{.Q.U.DXDX",
"DXc.e.9.& > > ; 0 0 ~ -XfXgXgX:X3 - w u $.B ~.^.{ -.-.$.&XpX1Xu 7.j.[.sXT.d.K.DX",
"DXn.7.7.i 3 q 0 ' %X%X%X^.5X0XiXC.[ l } &X;.$.{ } ;.1X~.} } N h 0.z.|.|.j.0.I.DX",
"DXx 6.l.8.5.v u XX:.:.K %.o.F._.7X;Xl h ] [ -.$.~ { $.~.2.h g e.r.).|.].d.N.DXDX",
"DXDXb f.E.k.7.x J :.{ X u 5 u B ,.T O & + X X ~ $.} m.(.u.4.7.).].[.!.8.4.=.DXDX",
"DXDXR 8.z.W.w.c K { } ~ J ~ | ] 3 4 & $ w - { &X^.p.s.j.l.j.j.|.sX).5.f h =.DXDX",
"DX&.) R O.f.z.u.b x M X.' ..X.k x X.T w B } N ;.$.4.).dXzXdXaXsX}.h.7.8.n 1.DXDX",
"DXD.&.! | c.).).a.M.N.%.@.Y & + 3 #.#X,.1.=.w q - 4.{.xXZXBXxXdXE.h.t.8.R D.<XDX",
"DXDXn.B.N.g.z.[.}.R.L.V o.l # O $ $ k r 3 w 4 4 p 8.{.BXZXBXaXR.h.y.7.n.E N.U.DX",
"DXDXH.P.!.).).zXxXsXC.m E E b * # $ + o + * b Q 6.I.].zXVXzX{.l.h.a.s.a.d.P.DXDX",
"DXDXDXDXT.R.|.xXBXZX@.d E E l x 3 + & $ d E E m 6.8.q.T.].R.T.d.h.l.z.z.j.f.DXDX",
"DXDXDXU.!.l.}.cXZXSX#.3 d k d h h @ O O x +.W l d 3 a 7.s.I.U.'.].|.[.).a.f.DXDX",
"DXDXDXU.R.[.|.vXjXMX;Xx w = w O.B.i.i.M * c l = # + 3 f v DXjXfXcX[.l.f.P.DXDXDX",
"DXDXDXQ.T.0X2X-X2XwXqX>X<.<.H.8XQ.Q.'.`.J.B & + # = & k ^.fX2X2.MX0Xl.DXDXDXDXDX",
"DXDXDXQ.DXZ.H.,X>X2X2X>X1.2.3.,X7X7X7X6XrX(.3 & 3 k ,.2X4X,XD.G.6XQ.Y.DXY.DXDXDX",
"DXDXDXDXDX1.=X2XwXeXeXD.3 3 u ^.;X>X2XqXqXwX:X;X#X2.bXMX>X;X>X2X^.V.DXDXQ.DXDXDX",
"DXDXDXDXDX| K | [ ^.>XH.T Y Y |  . .=.=.@.>.>.H.=X@X-X>X=XqX=XY Y X.DXDXDXDXDXDX",
"DXDXDXDXDXDXK e y | K K u q K Y |  . . .| P R =.>.>.z * b G.>.| DXDXDXDXDXDXDXDX",
"DXDXDXDXDXDXDXDXDXDX| u q e y q q q y y q y ] K K K r r o.@.DXDXDXDXDXDXDXDXDXDX",
"DXDXDXDXDXDXDXDXDXDXDXDXDXDXDXDXu u K y DXDXy ] DX ...@.DXDXDXDXDXDXDXDXDXDXDXDX"
};
