/* XPM */
static char *result[] = {
/* columns rows colors chars-per-pixel */
"40 40 155 2 ",
"   c #040202",
".  c #0B0403",
"X  c #0C0904",
"o  c #140604",
"O  c #1B0604",
"+  c #140906",
"@  c #1C0A05",
"#  c #1F0708",
"$  c #170A08",
"%  c #1D0C08",
"&  c #1C1007",
"*  c #1E1108",
"=  c #220705",
"-  c #2C0704",
";  c #230B06",
":  c #2B0B06",
">  c #230D09",
",  c #2B0D09",
"<  c #320C06",
"1  c #390C06",
"2  c #340E09",
"3  c #231107",
"4  c #2A1107",
"5  c #251309",
"6  c #2B140A",
"7  c #27180C",
"8  c #2C1A0C",
"9  c #331207",
"0  c #391106",
"q  c #351907",
"w  c #3A1907",
"e  c #33150A",
"r  c #3A130A",
"t  c #331B0C",
"y  c #3C1C0C",
"u  c #2D1C10",
"i  c #371710",
"p  c #341C10",
"a  c #3C1E12",
"s  c #37210D",
"d  c #3B220E",
"f  c #362111",
"g  c #3C2311",
"h  c #460D06",
"j  c #450F09",
"k  c #4C1406",
"l  c #451807",
"z  c #44140A",
"x  c #49130B",
"c  c #441C0C",
"v  c #4D1E0C",
"b  c #531205",
"n  c #5A1405",
"m  c #561A07",
"M  c #5D1A06",
"N  c #541108",
"B  c #59170B",
"V  c #541C0C",
"C  c #5B1C0B",
"Z  c #431E11",
"A  c #481E11",
"S  c #6C1F0C",
"D  c #42220D",
"F  c #4B220D",
"G  c #472B0F",
"H  c #4C280E",
"J  c #53230C",
"K  c #5D210C",
"L  c #542A0F",
"P  c #5B2A0F",
"I  c #422412",
"U  c #4B2412",
"Y  c #442913",
"T  c #4B2B14",
"R  c #4D2D19",
"E  c #532511",
"W  c #592611",
"Q  c #542B13",
"!  c #5A2C13",
"~  c #532718",
"^  c #4F311A",
"/  c #533316",
"(  c #5C3316",
")  c #53331B",
"_  c #5C3319",
"`  c #5A3A1D",
"'  c #64240D",
"]  c #622C0D",
"[  c #6A290F",
"{  c #762A0B",
"}  c #69300D",
"|  c #642512",
" . c #652A11",
".. c #702412",
"X. c #732D14",
"o. c #7C2D15",
"O. c #623415",
"+. c #6B3413",
"@. c #603817",
"#. c #6E3913",
"$. c #63351B",
"%. c #62391A",
"&. c #6A3D1B",
"*. c #773415",
"=. c #7B3117",
"-. c #7C3C11",
";. c #713B1B",
":. c #7D3A19",
">. c #563320",
",. c #5E3E22",
"<. c #6E421C",
"1. c #764117",
"2. c #634225",
"3. c #6B4121",
"4. c #7E5332",
"5. c #842F0C",
"6. c #86320F",
"7. c #833615",
"8. c #883712",
"9. c #823C16",
"0. c #81371A",
"q. c #803C19",
"w. c #854712",
"e. c #884115",
"r. c #81421E",
"t. c #894118",
"y. c #844B1B",
"u. c #944C13",
"i. c #90531B",
"p. c #9A521E",
"a. c #9E5C1E",
"s. c #A15B1B",
"d. c #8E4C27",
"f. c #8F4D2C",
"g. c #895E2F",
"h. c #9C5220",
"j. c #81553C",
"k. c #945C35",
"l. c #A45A23",
"z. c #A3592A",
"x. c #8C6432",
"c. c #98663A",
"v. c #A66222",
"b. c #AF6825",
"n. c #AC6229",
"m. c #B26B20",
"M. c #B86B2B",
"N. c #B47128",
"B. c #A06433",
"V. c #B27439",
"C. c #C28D3A",
"Z. c #D2A64B",
"A. c #CEA264",
"S. c #D3A664",
"D. c #D9C864",
/* pixels */
"e 8 4 : ; 9 4 O : +.;.;.$.~ A c 9 D Q Q Q &.<.&.( w m *.{ 5.C.Z.D.B.N - = .   . ",
"d y ; O @ 3 O @ 0 h.z.$.V 0.' v r H / _ T &.&.` L w M 7.{ 6.M.b.N.9.b - O . . . ",
"t 3 @ @ @ @ @ ; l n.1.k.r.p.*.E y Q ( @.T %.( Q w 9 M 0.' o.8.M n N h - O . . . ",
"3 @ O + @ @ @ 4 v l.V.:.l.l.q.] c ! _ %.T ! G e r 9 m =.S ' S ..n b - - O . . . ",
"3 @ o @ @ @ ; 4 z e.p.l.l.h.9.+.F O.@.$.U y t e ; : k K j C V B h 1 - O o . . . ",
"@ o + + o + ; 4 c K [ 9.9.t.:.] E O._ U e e 3 : ; : 0 < = = = : O o o . . . . . ",
"@ + @ + + @ ; 8 0 z C K ' [ x z ! ! y t 3 @ ; ; 3 9 c ! ! Q A c q : O o . . . . ",
"o @ o o o + ; 6 : x C K V x 0 E V t r 5 = % 3 t D 4 c J L P ! E F D q : O . o . ",
"6 g t 6 @ % @ @ : < 0 0 0 2 0 ! r 4 > ; ; t I 9 : > : = ; ; ; ; ; = = @ o . . . ",
"4 6 7 % @ O o @ < : < < : : 0 ;.>.: 3 t t y = O O = = O O = = = O = O = O o o o ",
"; @ + o o o $ # 1 < 0 , , = < P Q t T y = @ O o o O O O O = = < 9 0 - # = ; = o ",
"3 @ @ o o O # = - = : : = = - v V I , @ o o o o o O O O O O = = : : < : 1 : O O ",
"e 6 , $ # # = > = = : = = # = 0 e O o # O o O o o O # > = @ 3 4 : = = z ~ ; O o ",
", p A $ # @ > , : > = = # > # = > O o O O o o o O O O % O : 3 9 9 : < c.S.c = O ",
", 4.Z 6 @ = , , = : = = O , O # O O O O o O o O @ O , y I g D y w 9 r | $.t O O ",
"p i E > = > > = = = , # o , o O O O o o o o o o % @ , 6 4 9 q r r 9 9 : , , O o ",
"Z i v > # o o O # = # O @ @ = ; $ O @ % + 3 3 + I R ` 2.` ` > @ ; ; 4 4 4 @ o o ",
"A a 9 > O o O = = = = O ; t ; 6 , = 6 6 + 4 5 @ ^ ) ,.2.^ / ; = = O : q q 3 o o ",
"a , # % o . o O # = = + 3 y q q y t t 7 @ 8 7 @ Y ^ ) / R Y @ @ + o ; 8 4 O X . ",
"< , > # + . o # = = # @ 6 y t t D w q ; @ 8 8 O Y R ^ ^ T Y @ @ + + @ 4 & + . o ",
", , e o o . O # = = @ % t d t y D w q 5 @ t t + T ^ ) ` Y Y + o . . + & % + . . ",
": j.E > * # O O @ = + ; i y c c D D D 4 @ 8 t O s g g p p 8 + . . . o @ + X . . ",
"r Q O.% @ > @ O O O + 4 a F F P P L d 4 3 6 6 + s d g g d 8 . . .   . X X X . . ",
"4 : ( # 3 = O @ = = @ q U L P #.O.L D 4 @ 8 7 @ y g g d s 7 . . .   . X . . . . ",
"i t Z % 5 % O # = O ; y U W +.y.1.L y 9 * 4 3 @ d G g g g 8 X X .   . .   X   . ",
"6 6 6 % > o o O O O = q z K -.a.1.J D e 3 5 @ @ d g s s 8 *       .   .     . . ",
"> 5 > + % o O # # # 4 F  .*.u.m.v.&.c 4 @ @ + @ 7 7 5 3 & $ . . .               ",
"+ o % + + o O O O > 9 V d.A.z.| v.} D 6 @ 3 3 @ d g d s s 3 .                 . ",
"$ $ $ $ o o + # @ @ 9 V f.A.n.W v.O.c 4 ; 7 6 @ s g s s 7 &   X               . ",
"$ o X o . o + O O # 9 J | X.u.s.i.L c 6 3 4 7 + s f u 7 7 &                 . . ",
"> % % o o . . o o # 9 c E | -.i.y.F y 3 & 8 7 + 8 s s 7 7 &               . o + ",
"+ + o . . . o o o o , y A v } w.y.U t 3 ; 8 5 % 8 8 8 5 5 $ .             + o o ",
"$ % + o X X X . o # 3 i y c F ] +.D t 3 3 t 5 % t t 8 7 5 &             .     o ",
". . . . X X . . o > > > e e c c F t 9 ; 3 6 7 @ t t u 7 5 &             .     . ",
"o a a 5 6 i R R ^ ) U r i 9 e e y e 4 ; 3 p 5 @ s s s 7 7 &           X       . ",
"X o Z R % 6 Z 3.4.g.x.x.%.U r r 6 3 7 % 4 t u > G ^ g f 8 7         . X         ",
". $ X a i $ # 6 p p a g p p # > # @ % # 3 t 8 5 g g s 8 7 $         X + + . .   ",
"$ . $ X $ X X $ O 5 5 5 5 5 5 5 4 6 8 6 % @ @ # * * & $ X X       .             ",
"  $ X $ # . $ $ + 6 p p p p f f g I Y p 6 p 6 6 7 5 5 % X X X                 . ",
". . X X % .   $ % 6 8 8 f p f g I T / a ! <.) y @.( G 8 5 + X X .             . "
};
